<svg xmlns="http://www.w3.org/2000/svg" viewBox="0 0 77.36 28.1"><defs><style>.cls-1{fill:#084e9e;opacity:0.6;}</style></defs><g id="Capa_2" data-name="Capa 2"><g id="Capa_1-2" data-name="Capa 1"><path class="cls-1" d="M2.38,7.32S2.65,21.4,8,22.86c0,0,14.09,8.5,22,3.84,0,0,2.93-.91,3.84-2.38l.92-1.46s2-4.85,3.76-4.57,3.83,4.2,3.83,4.2,2.56,3.66,4.57,3.84S53,30.82,70.77,21.12L75.35,6.58l2-2.65V0H72.15s4.57,2.56-24.33,2.19S9.33,1.37,9.33,1.37L7,.91,6.22.73.27,1.28s-1.46,4.21,2.38,5.4Z"/></g></g></svg>