<svg xmlns="http://www.w3.org/2000/svg" viewBox="0 0 242.14 27.99"><defs><style>.cls-1{fill:#28316f;}</style></defs><g id="Capa_2" data-name="Capa 2"><g id="Capa_1-2" data-name="Capa 1"><path class="cls-1" d="M32.45,18.89s2.22,3.75-2.38,5.45-8.85,2.89-8.85,2.89-4.94,1.71-6,0a28.27,28.27,0,0,0-3-3.79H10.5s-1.45,0-2.47-2.5a10.11,10.11,0,0,0-2.81-2.05c-1.11-.34-1.62-3.32-1.62-3.32L2.84,14.3S.45,15.06,0,10.72s3.91-2,3.91-2S8.71,12.09,17.73,11a3.86,3.86,0,0,0-1.62-3.41C14.24,6.21,10.75,2.64,13.56,0H15s7.15,7.23,11.23,7.49a12.72,12.72,0,0,0,7.92-2.55L37.9,2.72s10.21,7.49,9.19,14.81C47.09,17.53,38.75,20.43,32.45,18.89Z"/><path class="cls-1" d="M209.69,18.89s-2.21,3.75,2.38,5.45,8.85,2.89,8.85,2.89,4.94,1.71,6,0a28.27,28.27,0,0,1,3-3.79h1.79s1.44,0,2.46-2.5a10.28,10.28,0,0,1,2.81-2.05c1.11-.34,1.62-3.32,1.62-3.32l.77-1.27s2.38.76,2.8-3.58-3.91-2-3.91-2-4.77,3.32-13.79,2.21A3.89,3.89,0,0,1,226,7.57c1.87-1.36,5.36-4.93,2.55-7.57h-1.44S220,7.23,215.9,7.49A12.69,12.69,0,0,1,208,4.94l-3.75-2.22S194,10.21,195.05,17.53C195.05,17.53,203.39,20.43,209.69,18.89Z"/></g></g></svg>